<svg width="1440" height="33" viewBox="0 0 1440 33" fill="none" xmlns="http://www.w3.org/2000/svg">
  <g clipPath="url(#clip0_12056_75487)">
    <path
      d="M-4.01807 13.2232C-115.604 11.1748 -280 33.3333 -280 33.3333V44H1720V20.1078C1720 20.1078 1691.95 24.6465 1672.03 26.2676C1615.09 30.9018 1580.55 18.6629 1521.18 20.1078C1483.83 21.0169 1465.35 25.262 1428.03 26.2676C1343.43 28.5472 1300.99 14.1019 1216 13.2232C1113.77 12.1663 1061.1 26.4129 958.791 26.2676C890.843 26.1711 854.338 20.1078 786.389 20.1078C718.44 20.1078 681.238 28.815 613.987 26.2676C560.19 24.2299 537.161 16.1826 483.99 13.2232C361.935 6.42986 292.19 30.3333 168.384 26.2676C98.8544 23.9843 65.8831 14.5064 -4.01807 13.2232Z"
      fill="#262626" />
  </g>
  <defs>
    <clipPath id="clip0_12056_75487">
      <rect width="1440" height="32" fill="white" transform="translate(0 0.0664062)" />
    </clipPath>
  </defs>
</svg>