<svg width="375" height="33" viewBox="0 0 375 33" fill="none" xmlns="http://www.w3.org/2000/svg">
  <g clipPath="url(#clip0_12054_54314)">
    <path
      d="M-536.018 13.2232C-647.604 11.1748 -812 33.3333 -812 33.3333V44H1188V20.1078C1188 20.1078 1159.95 24.6465 1140.03 26.2676C1083.09 30.9018 1048.55 18.6629 989.182 20.1078C951.826 21.0169 933.349 25.262 896.029 26.2676C811.426 28.5472 768.985 14.1019 684.003 13.2232C581.774 12.1663 529.097 26.4129 426.791 26.2676C358.843 26.1711 322.338 20.1078 254.389 20.1078C186.44 20.1078 149.238 28.815 81.9869 26.2676C28.1902 24.2299 5.16119 16.1826 -48.0097 13.2232C-170.065 6.42986 -239.81 30.3333 -363.616 26.2676C-433.146 23.9843 -466.117 14.5064 -536.018 13.2232Z"
      fill="#262626" />
  </g>
  <defs>
    <clipPath id="clip0_12054_54314">
      <rect width="375" height="32" fill="white" transform="translate(0 0.0664062)" />
    </clipPath>
  </defs>
</svg>