<svg viewBox="0 0 24 24" fill="none" xmlns="http://www.w3.org/2000/svg" width="24" height="24"><path d="M17.5005 9.89027C17.5013 9.39765 17.4572 8.90588 17.3686 8.42041H10.1523V11.2029H14.2845C14.2 11.647 14.021 12.0704 13.7585 12.4474C13.496 12.8244 13.1553 13.1473 12.757 13.3967V15.2075H15.2237C16.668 13.9501 17.5005 12.0898 17.5005 9.89027Z" fill="#4285F4"></path><path d="M10.1524 16.9526C12.2155 16.9526 13.9568 16.3118 15.2238 15.2076L12.7571 13.4003C12.07 13.842 11.187 14.0915 10.1524 14.0915C8.15719 14.0915 6.46268 12.8213 5.857 11.1094H3.31641V12.9714C3.95301 14.1683 4.92943 15.1744 6.1366 15.8774C7.34377 16.5804 8.73415 16.9527 10.1524 16.9526Z" fill="#34A853"></path><path d="M5.85639 11.1097C5.53609 10.2126 5.53609 9.24104 5.85639 8.34395V6.48145H3.3158C2.77938 7.4886 2.5 8.60032 2.5 9.72769C2.5 10.8551 2.77938 11.9668 3.3158 12.9739L5.85639 11.1097Z" fill="#FBBC04"></path><path d="M10.1524 5.36156C11.2432 5.3447 12.2972 5.73369 13.0868 6.44452L15.2724 4.38282C13.8872 3.15465 12.0525 2.48012 10.1524 2.50045C8.73429 2.50072 7.34412 2.87308 6.13703 3.57599C4.92994 4.2789 3.95341 5.2847 3.31641 6.48118L5.857 8.34368C6.46268 6.63178 8.15719 5.36156 10.1524 5.36156Z" fill="#EA4335"></path></svg>